HIERARCHY
ROOT Hips
{
	OFFSET 0.000000 0.000000 0.000000
	CHANNELS 6 Xposition Yposition Zposition Xrotation Yrotation Zrotation
	JOINT LeftUpLeg_virtual
	{
		OFFSET 0.000000 0.000000 0.000000
		CHANNELS 3 Xrotation Yrotation Zrotation
		JOINT LeftUpLeg
		{
			OFFSET 11.394100 -6.187798 -0.413800
			CHANNELS 3 Xrotation Yrotation Zrotation
			JOINT LeftLeg
			{
				OFFSET 0.430247 -32.302673 3.732800
				CHANNELS 3 Xrotation Yrotation Zrotation
				JOINT LeftFoot
				{
					OFFSET -0.430247 -48.264931 -6.423300
					CHANNELS 3 Xrotation Yrotation Zrotation
					JOINT LeftToeBase
					{
						OFFSET 4.230900 -16.068199 23.438400
						CHANNELS 3 Xrotation Yrotation Zrotation
						JOINT LeftToe_End
						{
							OFFSET 4.510700 0.695400 19.974600
							CHANNELS 3 Xrotation Yrotation Zrotation
							End Site
							{
								OFFSET 0 0 0
							}
						}
					}
				}
			}
		}
	}
	JOINT RightUpLeg_virtual
	{
		OFFSET 0.000000 0.000000 0.000000
		CHANNELS 3 Xrotation Yrotation Zrotation
		JOINT RightUpLeg
		{
			OFFSET -11.333700 -6.187798 -0.413800
			CHANNELS 3 Xrotation Yrotation Zrotation
			JOINT RightLeg
			{
				OFFSET -0.430392 -32.302628 3.733000
				CHANNELS 3 Xrotation Yrotation Zrotation
				JOINT RightFoot
				{
					OFFSET 0.430392 -48.264973 -6.423500
					CHANNELS 3 Xrotation Yrotation Zrotation
					JOINT RightToeBase
					{
						OFFSET -4.230900 -16.068199 23.438400
						CHANNELS 3 Xrotation Yrotation Zrotation
						JOINT RightToe_End
						{
							OFFSET -4.510700 0.695400 19.974600
							CHANNELS 3 Xrotation Yrotation Zrotation
							End Site
							{
								OFFSET 0 0 0
							}
						}
					}
				}
			}
		}
	}
	JOINT Spine_virtual
	{
		OFFSET 0.000000 0.000000 0.000000
		CHANNELS 3 Xrotation Yrotation Zrotation
		JOINT Spine
		{
			OFFSET -0.002400 12.777504 0.315300
			CHANNELS 3 Xrotation Yrotation Zrotation
			JOINT Spine1
			{
				OFFSET -0.002067 5.816869 0.032633
				CHANNELS 3 Xrotation Yrotation Zrotation
				JOINT Spine1_split
				{
					OFFSET -0.002067 5.816869 0.032633
					CHANNELS 3 Xrotation Yrotation Zrotation
					JOINT Spine2
					{
						OFFSET -0.002067 5.816869 0.032633
						CHANNELS 3 Xrotation Yrotation Zrotation
						JOINT Neck_virtual
						{
							OFFSET 0.000000 0.000000 0.000000
							CHANNELS 3 Xrotation Yrotation Zrotation
							JOINT Neck
							{
								OFFSET -0.003700 21.199493 -0.826900
								CHANNELS 3 Xrotation Yrotation Zrotation
								JOINT Head
								{
									OFFSET 0.000000 20.442200 4.834800
									CHANNELS 3 Xrotation Yrotation Zrotation
									JOINT HeadTop_End
									{
										OFFSET 0.000000 34.668396 4.968400
										CHANNELS 3 Xrotation Yrotation Zrotation
										End Site
										{
											OFFSET 0 0 0
										}
									}
								}
							}
						}
						JOINT LeftShoulder_virtual
						{
							OFFSET 0.000000 0.000000 0.000000
							CHANNELS 3 Xrotation Yrotation Zrotation
							JOINT LeftShoulder
							{
								OFFSET 3.288150 8.794197 -1.372250
								CHANNELS 3 Xrotation Yrotation Zrotation
								JOINT LeftShoulder_split
								{
									OFFSET 3.288150 8.794197 -1.372250
									CHANNELS 3 Xrotation Yrotation Zrotation
									JOINT LeftArm
									{
										OFFSET 11.953299 -2.279007 -0.146200
										CHANNELS 3 Xrotation Yrotation Zrotation
										JOINT LeftForeArm
										{
											OFFSET 18.448900 0.000000 0.000000
											CHANNELS 3 Xrotation Yrotation Zrotation
											JOINT LeftHand
											{
												OFFSET 29.527798 0.000000 0.000000
												CHANNELS 3 Xrotation Yrotation Zrotation
												End Site
												{
													OFFSET 0 0 0
												}
											}
										}
									}
								}
							}
						}
						JOINT RightShoulder_virtual
						{
							OFFSET 0.000000 0.000000 0.000000
							CHANNELS 3 Xrotation Yrotation Zrotation
							JOINT RightShoulder
							{
								OFFSET -3.249400 8.794197 -1.372250
								CHANNELS 3 Xrotation Yrotation Zrotation
								JOINT RightShoulder_split
								{
									OFFSET -3.249400 8.794197 -1.372250
									CHANNELS 3 Xrotation Yrotation Zrotation
									JOINT RightArm
									{
										OFFSET -11.953299 -2.279007 -0.146200
										CHANNELS 3 Xrotation Yrotation Zrotation
										JOINT RightForeArm
										{
											OFFSET -18.448900 0.000000 0.000000
											CHANNELS 3 Xrotation Yrotation Zrotation
											JOINT RightHand
											{
												OFFSET -29.527802 0.000000 0.000000
												CHANNELS 3 Xrotation Yrotation Zrotation
												End Site
												{
													OFFSET 0 0 0
												}
											}
										}
									}
								}
							}
						}
					}
				}
			}
		}
	}
}
MOTION
Frames: 7
Frame Time: 0.03333333
1.706994 102.310875 -11.093922 0.000000 0.000000 0.000000 0.425265 4.806757 -0.587165 -22.891162 29.262819 16.888638 19.629269 3.237602 3.307230 0.416139 11.029210 -17.042688 3.043843 -3.686730 1.319908 0.000000 0.000000 0.000000 0.852187 6.248471 -0.693321 -16.867506 -12.198136 -5.105494 12.913834 6.648049 -1.545457 -0.467674 1.612090 8.038237 5.390981 -0.220888 -28.166368 0.000000 0.000000 0.000000 -0.800455 10.079404 -1.206999 -0.713580 -0.283664 1.707150 2.118737 0.190178 1.060926 0.077723 0.168053 -0.076015 0.000000 0.000000 0.000000 0.102224 2.547109 1.581682 -2.700670 6.835404 3.937332 -13.862414 -35.565440 -13.785022 0.000000 0.000000 0.000000 -0.593550 0.804453 0.586549 -1.715001 7.147064 -5.045937 -1.990499 -0.430635 -0.515794 59.459481 -60.363183 -8.291888 -2.643420 -28.027915 -1.713412 0.000000 0.000000 0.000000 1.023060 1.208830 1.147959 -2.066301 -0.647948 3.389872 -0.557744 -1.338342 0.732636 10.008439 36.007251 65.577712 -9.720987 22.304632 1.220452 0.000000 0.000000 0.000000 
1.728210 102.295975 -11.061855 0.000000 0.000000 0.000000 0.451188 4.805191 -0.617863 -22.793557 29.215342 16.840730 19.551126 3.300657 3.358683 0.408285 11.108894 -17.002897 3.010765 -3.710192 1.366932 0.000000 0.000000 0.000000 0.881607 6.180783 -0.721506 -16.820936 -11.991552 -5.084884 12.944408 6.599932 -1.562699 -0.579385 1.548430 8.017127 5.503465 -0.241617 -28.200241 0.000000 0.000000 0.000000 -0.765781 10.113723 -1.261336 -0.751641 -0.314928 1.801061 2.232298 0.204856 1.088969 0.117032 0.160540 -0.069435 0.000000 0.000000 0.000000 0.208434 2.555240 1.585419 -2.857229 6.958663 4.113992 -14.178019 -35.192840 -13.997604 0.000000 0.000000 0.000000 -0.484984 0.802843 0.594076 -1.679072 6.932613 -5.185555 -2.113405 -0.489751 -0.347294 59.832211 -60.663910 -8.154337 -2.471855 -28.045942 -1.538245 0.000000 0.000000 0.000000 1.126267 1.212869 1.153570 -2.033737 -0.726971 3.086531 -0.621148 -1.228694 0.486502 10.107069 35.585279 65.376392 -9.714240 22.295638 1.269510 0.000000 0.000000 0.000000 
1.795899 102.270462 -10.996490 0.000000 0.000000 0.000000 0.472993 4.713687 -0.568024 -22.501928 29.264898 16.688094 19.348167 3.397776 3.372853 0.306538 11.203751 -16.678642 2.996051 -3.735717 1.426677 0.000000 0.000000 0.000000 0.915869 5.999712 -0.670712 -16.982277 -11.762549 -5.160473 13.170348 6.449678 -1.548089 -0.656306 1.430622 8.038421 5.734775 -0.258332 -28.214412 0.000000 0.000000 0.000000 -0.864631 10.134026 -1.240028 -0.811916 -0.340091 1.893366 2.393579 0.196374 1.032459 0.118254 0.122315 -0.083930 0.000000 0.000000 0.000000 0.443401 2.556511 1.503565 -3.281559 7.181649 4.548903 -14.545238 -34.492974 -14.316150 0.000000 0.000000 0.000000 -0.322361 0.785703 0.533075 -1.665685 6.631749 -5.248650 -2.164884 -0.514767 -0.202560 60.383428 -61.005146 -7.957059 -2.540250 -28.204626 -1.465731 0.000000 0.000000 0.000000 1.242538 1.178317 1.104944 -1.984799 -0.912626 2.812374 -1.329377 -0.730125 0.608938 10.230439 35.517684 65.206593 -9.329872 21.575277 1.039077 0.000000 0.000000 0.000000 
1.897298 102.234520 -10.917141 0.000000 0.000000 0.000000 0.470399 4.545000 -0.413922 -22.071953 29.406693 16.431267 19.054974 3.507390 3.338107 0.143385 11.318059 -16.136262 3.141269 -3.754971 1.460939 0.000000 0.000000 0.000000 0.952235 5.791764 -0.512308 -17.350706 -11.497939 -5.349645 13.590445 6.250375 -1.504037 -0.616112 1.292536 8.205252 5.986023 -0.249718 -28.211977 0.000000 0.000000 0.000000 -1.092796 10.226003 -1.105975 -0.873173 -0.343273 1.955027 2.594746 0.178125 0.891281 0.088105 0.049909 -0.092205 0.000000 0.000000 0.000000 0.739023 2.561809 1.335942 -3.937672 7.436783 5.227337 -14.893077 -33.751615 -14.679687 0.000000 0.000000 0.000000 -0.130476 0.770362 0.396209 -1.683271 6.257646 -5.171441 -2.233763 -0.505174 -0.135631 61.035062 -61.271824 -7.675730 -2.792315 -28.538603 -1.474767 0.000000 0.000000 0.000000 1.373461 1.130767 0.989204 -1.930233 -1.069956 2.666567 -2.078894 -0.146512 1.010930 10.303530 35.970659 65.009392 -8.648939 20.513244 0.597410 0.000000 0.000000 0.000000 
2.018702 102.197830 -10.855232 0.000000 0.000000 0.000000 0.433217 4.396391 -0.163163 -21.600395 29.597757 16.094424 18.724079 3.582612 3.255273 0.022668 11.430763 -15.532685 3.474720 -3.761545 1.478691 0.000000 0.000000 0.000000 0.957640 5.608888 -0.266131 -17.876934 -11.149433 -5.634830 14.129039 6.048956 -1.437128 -0.467317 1.139112 8.516569 6.175388 -0.226505 -28.150480 0.000000 0.000000 0.000000 -1.404435 10.377904 -0.875451 -0.902497 -0.302221 1.987822 2.831976 0.168526 0.670368 0.051269 0.010145 -0.104693 0.000000 0.000000 0.000000 1.025019 2.586389 1.085189 -4.751045 7.659227 6.113340 -15.162443 -33.193558 -15.044067 0.000000 0.000000 0.000000 0.068228 0.767486 0.196587 -1.725894 5.794288 -4.923296 -2.393983 -0.534621 -0.295533 61.744630 -61.427006 -7.263484 -3.097293 -28.988836 -1.501921 0.000000 0.000000 0.000000 1.519335 1.112039 0.800845 -1.876641 -1.030599 2.724848 -2.572280 0.131745 1.476339 10.151372 37.059493 64.706159 -7.766378 19.383244 0.025563 0.000000 0.000000 0.000000 
2.154978 102.165237 -10.842087 0.000000 0.000000 0.000000 0.385883 4.249274 0.152105 -21.175984 29.789795 15.713168 18.395494 3.590378 3.131747 0.028217 11.542238 -14.993023 3.859586 -3.758703 1.546238 0.000000 0.000000 0.000000 0.927777 5.478780 0.026139 -18.436663 -10.687013 -5.962987 14.663016 5.863521 -1.364556 -0.322675 0.966772 8.878300 6.333613 -0.210555 -27.968335 0.000000 0.000000 0.000000 -1.676354 10.565054 -0.604255 -0.885234 -0.189345 1.993062 3.109136 0.191863 0.394978 0.030274 0.021804 -0.092294 0.000000 0.000000 0.000000 1.244573 2.639912 0.788890 -5.641434 7.822696 7.140068 -15.347010 -33.044646 -15.399739 0.000000 0.000000 0.000000 0.223997 0.794915 -0.032805 -1.782520 5.272831 -4.535801 -2.686066 -0.706268 -0.680051 62.505848 -61.576505 -6.640423 -3.324081 -29.377692 -1.496876 0.000000 0.000000 0.000000 1.647874 1.134363 0.556297 -1.814657 -0.641558 2.954804 -2.886907 -0.048144 1.890280 9.602238 38.768284 64.186354 -6.793275 18.121195 -0.627828 0.000000 0.000000 0.000000 
2.305970 102.151207 -10.889111 0.000000 0.000000 0.000000 0.318464 4.093510 0.472545 -20.839619 29.947583 15.319704 18.111855 3.534203 2.986066 0.157105 11.717916 -14.604587 4.182935 -3.754898 1.686156 0.000000 0.000000 0.000000 0.857340 5.380545 0.300185 -18.910371 -10.133394 -6.251880 15.083067 5.663487 -1.296600 -0.225287 0.775268 9.130648 6.520298 -0.232741 -27.599121 0.000000 0.000000 0.000000 -1.852041 10.738563 -0.356988 -0.829511 -0.011081 1.963477 3.389767 0.240831 0.101770 0.044931 0.088678 -0.083106 0.000000 0.000000 0.000000 1.385055 2.709156 0.485627 -6.557206 7.952244 8.163017 -15.445996 -33.378656 -15.723037 0.000000 0.000000 0.000000 0.334352 0.845752 -0.252861 -1.838517 4.760768 -4.063189 -3.077158 -0.940105 -1.171380 63.373910 -61.826128 -5.737971 -3.382889 -29.592136 -1.429354 0.000000 0.000000 0.000000 1.760888 1.195715 0.295705 -1.758303 0.149613 3.213151 -2.736013 -0.576815 2.193016 8.400580 41.169945 63.430266 -5.887999 16.597076 -1.381196 0.000000 0.000000 0.000000 
